<?xml version="1.0" encoding="utf-8"?>
<!-- Generator: Adobe Illustrator 27.5.0, SVG Export Plug-In . SVG Version: 6.00 Build 0)  -->
<svg version="1.1" id="Layer_1" xmlns="http://www.w3.org/2000/svg" xmlns:xlink="http://www.w3.org/1999/xlink" x="0px" y="0px"
	 viewBox="0 0 67.8 51.5" style="enable-background:new 0 0 67.8 51.5;" xml:space="preserve">
<style type="text/css">
	.st0{fill:#FFFFFF;}
</style>
<path class="st0" d="M42,51.2c-0.1,0.2-0.3,0.3-0.5,0.3H30c-0.2,0-0.5-0.2-0.6-0.4l-3.1-7.7H9c-0.2,0-0.4-0.1-0.5-0.3
	c-0.1-0.2-0.1-0.4-0.1-0.6l0.3-0.8c0.1-0.2,0.3-0.4,0.6-0.4h16.1l-9.6-23.7L2.2,51.1c-0.1,0.2-0.3,0.4-0.6,0.4H0.6
	c-0.2,0-0.4-0.1-0.5-0.3C0,51.1,0,50.9,0,50.7L19.7,2.3c0,0,0,0,0-0.1l0.8-1.9C20.6,0.2,20.8,0,21.1,0c0.2,0,0.5,0.2,0.6,0.4
	l20.4,50.3C42.2,50.9,42.1,51.1,42,51.2z"/>
<path class="st0" d="M67.7,51.2c-0.1,0.2-0.3,0.3-0.5,0.3H55.7c-0.2,0-0.5-0.2-0.6-0.4L41.5,17.7l-4.4,10.9C37,28.9,36.8,29,36.5,29
	c0,0,0,0,0,0c-0.2,0-0.5-0.2-0.6-0.4l-0.5-1.3c-0.1-0.1-0.1-0.3,0-0.5l10-24.6c0,0,0,0,0-0.1l0.8-1.9C46.3,0.2,46.5,0,46.8,0
	c0.2,0,0.5,0.2,0.6,0.4l20.4,50.3C67.9,50.9,67.8,51.1,67.7,51.2z"/>
</svg>
