<?xml version="1.0" encoding="utf-8"?>
<!-- Generator: Adobe Illustrator 27.5.0, SVG Export Plug-In . SVG Version: 6.00 Build 0)  -->
<svg version="1.1" id="Layer_1" xmlns="http://www.w3.org/2000/svg" xmlns:xlink="http://www.w3.org/1999/xlink" x="0px" y="0px"
	 viewBox="0 0 122.9 88.9" style="enable-background:new 0 0 122.9 88.9;" xml:space="preserve">
<style type="text/css">
	.st0{fill:#FFFFFF;stroke:#FFFFFF;stroke-width:5;stroke-miterlimit:10;}
</style>
<path class="st0" d="M11.6,3.7h99.7c3.6,0,6.4,2.9,6.4,6.5v68.5c0,1.3-0.4,2.6-1.1,3.7c-0.1,0.4-0.4,0.6-0.6,0.9
	c-0.2,0.2-0.4,0.3-0.6,0.5c-1.2,1-2.7,1.5-4.1,1.6H11.6c-3.6,0-6.4-2.8-6.4-6.4V10.2C5.2,6.7,8.1,3.7,11.6,3.7z M11.4,75.9l33.7-35
	L11.4,12.4V75.9z M50.1,45.3l-36,34.8h94.4L74.1,45.3L64,53.8l0,0c-0.9,0.7-2.2,0.7-3.2,0L50.1,45.3z M79.1,40.8l32.5,35.4V12.2
	L79.1,40.8z M14.5,8.7l47.8,38.8l45.7-38.8C108.1,8.7,14.5,8.7,14.5,8.7z"/>
</svg>
