<?xml version="1.0" encoding="utf-8"?>
<!-- Generator: Adobe Illustrator 27.5.0, SVG Export Plug-In . SVG Version: 6.00 Build 0)  -->
<svg version="1.1" id="Capa_1" xmlns="http://www.w3.org/2000/svg" xmlns:xlink="http://www.w3.org/1999/xlink" x="0px" y="0px"
	 viewBox="0 0 800 800" style="enable-background:new 0 0 800 800;" xml:space="preserve">
<style type="text/css">
	.st0{fill:#FFFFFF;}
</style>
<g>
	<path class="st0" d="M106.6,0.6C47.9,0.6,0,48.4,0,107.2C0,166,47.8,213.8,106.6,213.8c58.8,0,106.6-47.8,106.6-106.6
		C213.2,48.4,165.4,0.6,106.6,0.6z"/>
	<path class="st0" d="M186.7,256.7H26.6c-7.6,0-13.8,6.2-13.8,13.8v515.2c0,7.6,6.2,13.8,13.8,13.8h160.1c7.6,0,13.8-6.2,13.8-13.8
		V270.5C200.4,262.8,194.3,256.7,186.7,256.7z"/>
	<path class="st0" d="M595.9,250.6c-58.6,0-110.1,17.8-141.5,46.9v-27.1c0-7.6-6.2-13.8-13.8-13.8H287.1c-7.6,0-13.8,6.2-13.8,13.8
		v515.2c0,7.6,6.2,13.8,13.8,13.8H447c7.6,0,13.8-6.2,13.8-13.8V530.8c0-73.1,13.5-118.5,80.6-118.5c66.1,0.1,71.1,48.7,71.1,122.8
		v250.5c0,7.6,6.2,13.8,13.8,13.8h160c7.6,0,13.8-6.2,13.8-13.8V503C800,385.5,776.8,250.6,595.9,250.6z"/>
</g>
</svg>
